<svg width="512" height="512" viewBox="0 0 512 512" fill="none" xmlns="http://www.w3.org/2000/svg">
  <rect width="512" height="512" fill="#0ea5e9"/>
  <path d="M256 128C179.2 128 128 179.2 128 256s51.2 128 128 128 128-51.2 128-128-51.2-128-128-128zm0 213.333c-47.104 0-85.333-38.229-85.333-85.333S208.896 170.667 256 170.667 341.333 208.896 341.333 256 303.104 341.333 256 341.333z" fill="white"/>
  <path d="M256 170.667c-47.104 0-85.333 38.229-85.333 85.333S208.896 341.333 256 341.333 341.333 303.104 341.333 256 303.104 170.667 256 170.667zm0 128c-23.552 0-42.667-19.115-42.667-42.667S232.448 213.333 256 213.333 298.667 232.448 298.667 256 279.552 298.667 256 298.667z" fill="white"/>
</svg> 